<?xml version="1.0" encoding="UTF-8" standalone="no"?>
<!-- Created with Inkscape (http://www.inkscape.org/) -->
<svg version="1.1" id="svg1207" width="920" height="920" viewBox="0 0 920 920" xmlns="http://www.w3.org/2000/svg" xmlns:svg="http://www.w3.org/2000/svg">
  <defs id="defs1211"/>
  <g id="g1213">
    <path style="fill:#000000" d="m 309.88309,752.7706 c -9.06521,-3.01416 -15.95684,-8.95395 -20.67179,-17.81672 -3.36362,-6.32264 -3.31825,-20.1842 0.0895,-27.34941 1.92372,-4.04484 26.37029,-29.02233 127.97085,-130.75002 L 542.86451,451.10443 416.73535,324.85445 C 294.4289,202.43084 290.53921,198.42262 288.39602,192.60447 c -4.50762,-12.23691 -0.92654,-27.00489 8.57687,-35.37013 7.18305,-6.32277 12.61517,-8.43838 21.93096,-8.54128 15.62494,-0.17258 3.21658,-11.45675 159.57859,145.12091 155.26789,155.48203 143.27031,142.27335 143.32274,157.7905 0.0489,14.47804 9.92727,3.68458 -145.19474,158.64515 -109.31328,109.19951 -139.72821,139.05172 -143.44775,140.79378 -5.89791,2.76231 -17.56342,3.62782 -23.2796,1.7272 z" id="path3154"/>
  </g>
</svg>